<svg xmlns="http://www.w3.org/2000/svg" id="Calque_1" viewBox="0 0 784 221.45"><defs><style>.cls-1{fill:#2d496a}</style></defs><path id="Logo_tout_blanc" d="M96.8 203.63c1.11 2.21 6.23 5.03 7.08 7.11.04.1.1.18.19.23 1.91 1.21 2.52 3.52 1.53 5.33-.25.46-.96.28-.96-.25 0-1.19-.15-2.35-1.19-2.46-1-.11-2.24.27-3.45-.07-1.38-.4-2.47-1.75-3.01-3.08a.49.49 0 0 0-.51-.32c-3.48.25-6.94-.64-10.42-.1-.16.02-.3.12-.38.27-1.72 3.27-3.95 7.47-8.28 7.16-.21-.01-.43.09-.51.29-.45 1.08-.26 2.06-.06 3.11.07.37-.28.69-.64.59-.69-.2-1.3-.62-1.65-1.15-.5-.75-.53-1.24-.49-1.97.2-3.42 2.74-5.49 5.12-7.71.25-.23.2-.66-.1-.81-1.36-.71-2.25-.23-4.04-.45-.66-.08-1.62.28-2.35.13-.23-.05-.47.03-.58.23a2.88 2.88 0 0 1-3.31 1.47c-.73-.19-1.06.4-1.22.71-.37.73-.06 1.55.11 2.37.09.44-.38.77-.76.54-.46-.28-.9-.42-1.23-1.04-.4-.76-.92-2.16-1.13-2.72a.51.51 0 0 1 .05-.45c.35-.54 1.28-1.94 1.74-2.39 1.89-1.79 4.11-2.39 6.85-2.39 4.16 0 8.61-.48 12.79-.71.7 0 4.49-5.72 5.74-7.9 3.44-5.35 6.19-10.02 8.51-15.9.57-1.44.93-3.57.78-5.64-.02-.27.17-.53.45-.55 2.02-.19 2.34 2.59 3.69 3.26 1.27.63 3.25-.52 4.86-.1.39.1.5.6.2.87-5.95 5.26-11.96 12.13-13.66 19.41-.37 1.58-.7 3.27.22 5.1Zm8.03-9.67c-1.18-.02-2.52 0-3.53-.14a.51.51 0 0 0-.52.24c-.23.42-.45.9-.65 1.36-.16.35.11.74.49.72 1.48-.08 3.11-.47 4.45-1.22.45-.25.27-.94-.24-.95ZM62.16 155.9c-.68-2.57-3.25-3.33-3.93-5.72a.51.51 0 0 0-.44-.38 51.4 51.4 0 0 1-8.09-1.44c-5.13-1.32-9.55-2.92-14.01-5.35-2.21-1.2-4.67-1.65-7.14-1.92-1.96-.22-4.25-.12-5.64-.27s-2.22.47-3.21 1-10.3 5.76-15.24 6.06c-2.2.13-4.38 2.42-4.45 4.37s1.03 4.91 2.96 4.91c-.46-.95-1.38-2.39-1.24-2.68.36-.68 11.2-5.35 14.35-7.83.14-.11.32-.14.49-.08.09.03.19.07.28.1a.5.5 0 0 1 .32.63c-.79 2.35-4.65 6.7-5.33 9.38-.65 2.51 0 4.85 1.61 5.73.38.21.84-.12.75-.54-.13-.61-.33-1.07-.16-1.57.5-.97 1.83-1.45 2.2-2.68 1.03-3.41.78-7.65 3.81-9.92.11-.08.26-.11.39-.09 1.15.19 2.2.25 3.28.24 1.95-.02 3.76-.68 4.73-.86.25-.05.5.09.58.33 1.14 3.23.46 6.72 1.46 10.09.49 1.67 1.38 3.04 2.74 4.11.21.17.26.4.24.67-.05.55.72.78.96.28 2.04-4.25-1.09-9.92-1.81-15.04-.04-.31.21-.59.53-.57 2.88.19 6.35 1.28 7.93 3.48.73 1.01.88 2.64 1.26 4.14.24.96.04 1.83-.04 2.74-.05.52.65.78.93.34 1.06-1.69 1.06-4 1.06-5.98 0-.51.72-.53 1-.51 2.22.14 4.39.76 6.41 1.49 3.77 1.36 6.91 2.53 9.62 5.31.3.31.82.13.86-.29.06-.54.1-1.13-.03-1.67Zm72.62-33.62c-1.18-1.84-4.49-3.41-7.21-1.4-.19.14-.25.4-.15.61.72 1.6 1.66 3.34 2.44 4.7.18.31.62.34.84.05 1.22-1.62 2.59-2.57 3.88-3.24.27-.14.37-.47.21-.73Zm26.1 21.91c-.2.43.23.89.66.69 5.99-2.74 10.98-8.98 10.98-18.92 0-11.81-9.3-24.73-22.93-24.73-12.25 0-21.93 8.22-25.65 12.04-.15.15-.18.37-.09.56.71 1.49 1.53 3.32 2.23 4.8.13.27.46.36.72.21 3.95-2.26 7.45-.2 8.45.79 3.92 3.84 2.65 8.6.97 11.42-.22.37.06.83.49.78 3.62-.46 8.08-2.89 10.28-7.72.19-.42.79-.4.94.03 1.38 3.92 2.37 8.08.73 12.89-.11.32.11.67.45.68 4.87.19 8.62-1.67 11.52-5.34.26-.33.79-.21.89.2.9 3.73.8 8.52-.65 11.61Zm1.06-46.85c.49.07.78-.54.42-.87-3.54-3.24-7.97-5.53-14.27-5.53-8.81 0-18.94 7.06-27.25 16.42-.14.16-.17.39-.07.58.35.64.73 1.3 1.09 1.97.16.29.56.35.8.12 10.98-10.65 24.32-13.17 32.15-13.17 2.46 0 4.8.15 7.14.48Zm3.45-13.93c1.83-.01 3.88.07 6.06.3.58.06.79-.75.25-.98-5.59-2.32-11.65-3.49-17.73-3.35-8.37.2-16.91 2.95-24.07 7.74-5.39 3.61-10.13 8.81-13.16 14.38a.5.5 0 0 0 .05.56c.44.54.86 1.1 1.28 1.67l.4.57a.5.5 0 0 0 .78.05c5.43-5.87 11.98-10.81 19.12-14.36 8.54-4.24 17.87-6.52 27-6.6Zm-8.12-9.24c-1.12-.06-2.24-.07-3.37-.03-.12 0-.23.05-.32.13-.34.31-.78.69-1.22 1.06-.37.31-.13.92.35.89 1.02-.05 2.11-.07 2.96-.05.09 0 .18-.02.26-.07.55-.31 1.09-.65 1.61-1.01.4-.28.21-.9-.27-.93Zm7.09-6.58c1.07-2.3 1.87-5 2.16-7.32.04-.3-.21-.57-.52-.57-1.02.01-2.05.06-3.08.14-.22.02-.4.18-.45.39-.49 2.09-1.27 4.12-2.29 6.01-.16.29 0 .65.32.73 1.09.26 2.17.55 3.25.88.24.07.5-.03.61-.26m-37.15 8.42c-4.3 4.78-7.08 10.57-8.71 16.14-.16.53.54.88.89.45 2.09-2.61 4.47-5.03 7.16-7.02.13-.1.21-.25.2-.41-.09-2.67.31-5.64 1.32-8.66.18-.53-.49-.9-.86-.49Zm23.25-36.81c8.01-1.4 14.56-1.37 21.3-.03.1.02.2.01.29-.03 5.45-2.25 12.19-5.46 17.71-10.62.41-.39 0-1.06-.53-.85-4.38 1.77-9.14 3.01-15.38 2.71-.47-.02-.67-.62-.3-.91 3.18-2.48 10.3-8.66 13.29-20 .14-.52-.53-.86-.88-.46-12.09 13.83-24.73 22.97-35.83 29.24-.5.28-.23 1.04.33.94Zm16.16 17.27c9.29 0 18.01 2.39 24.18 8.88 4.9 5.15 7.09 13.01 6.75 19.19-.03.57.76.76.98.23 4.48-11.01 1.59-21.1-3.59-28.2-7.34-10.06-20.05-15.27-33.83-15.27-20.73 0-35.96 11.33-43.47 21.42-6.65 8.93-9.56 20.48-8.37 31.55.01.13.08.25.18.34 1.16.98 2.29 2 3.37 3.08.3.3.79.13.86-.29 3.68-24.79 26.57-40.92 52.94-40.92Zm-88.48 71.64c8.5 0 14.56-3.8 18.61-9.03a.51.51 0 0 0-.51-.81c-1.69.36-4.2.66-6.34.56-.47-.02-.66-.61-.29-.91 3.42-2.8 5.82-7.49 5.82-12.66 0-11.06-10.75-20.06-21.36-20.06-7.18 0-11.23 4.4-13.43 7.38-.1.13-.25.2-.42.2-6-.17-10.74 3.3-10.74 8.77 0 7.57 11.37 26.55 28.66 26.55Zm18.72-4.48c1.58.15 3.23.22 4.58.13.27-.02.48-.26.47-.53-.07-1.8-.3-3.48-.65-5.28-.09-.46-.7-.57-.93-.17-1.05 1.8-2.33 3.47-3.78 4.97-.3.31-.12.83.31.87Zm17.61 17.5c-5.73.34-15.31.3-25.16-1.88-.55-.12-.86.61-.39.92 7.1 4.65 17.41 5.35 25.24 5.02.23 0 .42-.17.47-.4.18-.83.33-2.08.36-3.14.01-.3-.23-.55-.53-.53Zm-23.15-13.17c3.94.71 6.9 1.87 9.68 3.22.31.15.68-.05.73-.39.16-1.12.2-2.21.2-3.46 0-.27-.21-.5-.49-.51-1.83-.07-5.46-.42-8.01-1.09-.15.03-.27.06-.42.09-.54.41-1.21.82-1.86 1.2-.41.23-.3.85.17.94m-14.77 3.58c8.45 3.99 15.95 5.48 23.14 6.18.24.02.46-.12.54-.34.27-.77.5-1.55.7-2.34-.09-.21-.16-.37-.26-.58-8.15-4.43-15.14-4.76-17.92-4.3-1.47.24-3.62.5-5.98.42-.55-.02-.73.73-.23.97Zm32.78 6.62c1.65.02 3.69.02 5.29-.11.26-.02.46-.24.46-.5 0-1.25-.16-3.14-.5-4.82a.505.505 0 0 0-.9-.2c-1.18 1.6-2.61 3.24-4.62 4.71-.4.29-.21.91.28.92Zm-24.32 2.79c-1.65-1.33-3.12-2.96-4.03-4.09a.5.5 0 0 0-.21-.15c-7.09-2.63-13.1-6.09-19.57-11.29a.6.6 0 0 0-.17-.09c-5.63-1.66-11.13-4.11-18.06-9.41-.4-.31-.96.1-.79.58 5.74 16.43 21.84 25.75 42.52 25.35.48 0 .67-.61.3-.91Zm-3.29 17.02c-3.27-2.82-7.64-6.98-9.94-13.85-.06-.17-.2-.3-.37-.33-3.39-.69-6.78-1.69-9.95-3.1-.35-.16-.75.11-.72.49.15 1.66.98 3.62 1.16 5.54.15 1.57-.51 1.67-1.19 1.79-.83.15.22 2.72 4.51 5.37.18.11.28.33.23.54-.43 1.74-.62 5.03 2.36 6.96 1.89 1.22 4.53 1.18 8.17-.71 1.82-.95 3.41-1.45 5.49-1.82.42-.08.57-.6.25-.88m34.25 14.52c.85-3.06-.04-5.82 0-8.6.03-1.66.58-3.55 1.19-5.39.15-.46-.36-.85-.76-.58-2.68 1.81-5.86 3.45-8.86 4.73-.48.2-.92-.37-.6-.78 2.8-3.55 5.45-8.18 6.73-12.85a.51.51 0 0 0-.49-.64c-6.26 0-15.58-.7-22.93-3.75-.08-.03-.16-.05-.25-.03-3.29.45-8.47.82-13.81.04-.39-.06-.71.33-.55.7 2.73 6.11 7.8 10.97 15.91 15.99 3.7 2.29 8.04 5.4 9.12 10.05.07.3.37.48.66.38 1.66-.58 2.38-.19 3.1 1.16.64 1.21 1.45 2.44 2.34 2.45.73 0 .97-.19 2.07-.42.68-.12 1.33-.08 1.79.13.83.38 1.4.52 1.89.44 1.87-.3 2.94-1.19 3.45-3.02Zm20.88-13.43c-4.68-5.5-5.99-10.9-6.43-16.34-.04-.43.44-.71.79-.47 2.82 1.95 6.16 3.42 9.74 3.55.48.02.7-.58.34-.89-7.45-6.51-13.52-14.9-18.36-26.08-3.96-9.14-8.82-17.06-17.52-23.59-4.05-3.04-9.4-6.06-15.43-7.88-.53-.16-.88.53-.46.88 10.41 8.5 9.68 19.79 6.41 26.07-.21.41.18.88.62.72 2.34-.86 4.04-2.01 5.19-3.01.28-.24.71-.12.82.23 3.11 9.87 2.44 19.24.68 24.61-.14.44.33.82.74.6 5.3-2.94 8.99-8.03 10.49-12.64.15-.47.79-.48.96-.02 4.24 11.56 2.77 21.64-1.33 30.42-.21.46.3.92.73.64 1.6-1.04 3.36-2.37 4.88-3.77.33-.3.87-.05.84.4-.46 8.39 1.94 15.09 5.62 20.8.28.43.95.22.93-.29-.24-6.81.53-13.43 1.3-18.44.07-.48.72-.6.95-.18 1.85 3.37 4.37 4.88 6.99 5.49.48.11.83-.45.51-.82Zm37.75-7.46c-7.46 4.51-14.94 4.51-20.52 2.98-.18-.05-.36 0-.49.13-2.96 3.07-6.77 6.38-12.78 7.5-.51.1-.56.83-.06.98 3.04.96 5.81.71 8.22-.27.43-.17.84.29.64.7-2 4.05-5.15 6.5-8.14 8.43-.45.29-.21.99.33.94 4.57-.43 8.77-2.61 11.7-4.86.37-.28.88.03.81.49-1.38 8.53-1.48 15.86-.36 22.19.11.59.97.55 1.01-.06.64-10.21 4.66-16.8 8.82-21.52.28-.32.79-.16.88.25.65 3.03 1.77 5.52 2.97 7.6.25.43.9.29.95-.21 1.01-11.12 4.12-19.04 6.75-24.63.22-.46-.29-.9-.73-.64m15.51-19.36c.61-9.22-2.43-18.34-7.27-25.9-4.26-6.65-12.95-14.48-23.35-16.34-.56-.1-.83.68-.33.95 4.7 2.52 8.59 6.43 11.03 10.68.24.42-.18.9-.63.72-2.42-.96-4.85-1.53-7.37-1.86-.55-.07-.81.66-.33.94 9.29 5.48 13.91 15.52 13.91 24.78 0 14.23-10.1 20.44-15.45 22.04-3.08.92-6.38 1.09-9.57.56-.52-.09-.81.61-.38.91 4.84 3.4 12.76 3.66 18.92 1.15 3.99-1.62 7.55-4.7 9.71-7.96.27-.4.89-.25.93.22.36 3.7-.19 7.3-1.01 10.25-.14.49.46.84.84.5 4.74-4.32 9.69-11.76 10.34-21.65Zm-14.81 53.91c-.24.53-1.04.33-.97-.25.89-7.49 4.63-15 8.69-21.8 6.07-10.17 9.68-21.46 10.4-32.3 1.35-20.47-14.68-40.85-32.83-44.71-.58-.12-.54-.96.05-1.01 9.87-.8 21.15 1.98 28.63 7.44 8.28 6.04 16.41 19.72 16.41 36.79s-4.88 26.32-8.65 36.24c-4.1 10.79-6.82 22.2-6.71 33.01 0 .54-.73.71-.96.22-4.23-9.01-3.65-18.64-2.85-25.23.05-.43-.41-.71-.78-.49-4.21 2.61-7.73 6.02-10.44 12.08ZM64.39 82.56c.16.42.75.42.93.01 2.15-4.94 5.7-8.28 9.08-11.72 2.37-2.4 4.18-4.5 5.7-7.05.22-.38.79-.3.92.12.88 2.85 1.47 5.83 1.43 8.96-.04 2.61-.08 4.66.22 6.36.1.56.92.54 1-.02.85-5.78 3.54-10.38 5.02-14.25 2.28-5.93 2.98-10.05 2.98-13.69 0-10.99-6.27-16.63-12.09-16.63-4.06 0-6.03 2.72-6.61 6.07-.5 2.92-.56 6.56-2.98 11.34-1.73 3.41-4.99 8.03-11.69 11.2-.44.21-.36.87.12.96 3.79.74 7.11.48 9.96.02.51-.08.79.55.4.89-3.62 3.05-4.94 6.56-5.43 10.46-.28 2.24.24 4.89 1.04 6.97m14.08-10.75c-2.59 2.72-7.24 6.93-9.05 10.38-.2.38.15.81.56.72 3.16-.71 7.06-.48 10.13.41.42.12.8-.3.61-.69-1.42-2.96-1.17-6.94-1.38-10.49-.03-.44-.57-.65-.87-.32Zm95.05 3.38c-4.13-3.14-9.25-5.4-16.91-6.95a.506.506 0 0 1-.31-.8c1.42-1.95 2.54-4.09 3.24-6.5.1-.35-.2-.7-.56-.64-6.26.95-14.2 3.47-19.64 6.54-4.67 2.64-8.46 8.12-9.28 15.46-.05.42.39.71.76.5 4.56-2.64 9.55-4.55 14.65-5.62a.37.37 0 0 0 .18-.08c2.37-1.67 4.62-3.36 6.62-5.19.09-.08.21-.13.33-.13 7.9-.27 14.58 1.77 20.43 4.29.55.24.98-.51.51-.87ZM60 37.22c-.42.22-.34.84.11.96 1.5.37 3.33.47 4.55.33.84-.09 2.42-.51 3.34-.75a.51.51 0 0 0 .34-.71c-.18-.38-.4-.77-.68-1.16-.34-.46-.66-.89-.95-1.31a.53.53 0 0 0-.61-.19c-1.4.54-2.79 1.16-4.14 1.82-.53.26-1.26.63-1.97 1.01Zm-7.31 9.37c0 1.67 1.1 2.34 2.24 2.34 1.65 0 2.36-1.06 3.48-3.36.75-1.54 1.67-2.7 2.84-3.62.4-.32.16-.95-.35-.92-3.08.19-5.49 1.23-7.08 2.89-.72.75-1.09 1.78-1.13 2.66Zm16.64-5.1a.518.518 0 0 0-.89-.31c-1.38 1.39-3.01 2.11-4.91 3.06-2.14 1.07-3.74 2.4-3.74 4.54 0 1.37 1.16 2.66 3.05 2.66s3.49-.74 4.87-2.84c1.48-2.26 1.86-4.51 1.63-7.11Zm3.52-8.88a.516.516 0 0 1-.02-.77c.24-.24.45-.54.6-.88.54-1.24.17-2.6-.84-3.04s-2.26.21-2.8 1.45c-.14.31-.21.64-.24.95-.02.31-.32.52-.62.45-.28-.07-.54-.02-.76.29-.25.36-.23 1 .21 1.75.31.52.78 1.08 1.36 1.52.5.38.99.77 1.42 1.2.22.22.59.19.77-.06.41-.57.93-1.12 1.45-1.56.21-.18.23-.5.06-.71-.18-.21-.38-.41-.58-.57ZM94.59 1.08c-2.88.27-6.05 1.53-8.5 4.1-.29.3-.81.15-.87-.26-.23-1.38-.09-3.17-.16-4.43a.513.513 0 0 0-.78-.41c-2.9 1.77-5.77 4.07-7.87 8.2-.21.4-.81.36-.94-.07-.36-1.21-.29-2.66-.35-3.72a.52.52 0 0 0-.87-.35c-2.29 2.14-4.35 5.43-5.42 8.64-.15.44-.76.47-.95.05-.4-.88-.61-1.98-.92-2.8-.12-.32-.54-.42-.81-.2-5 4.24-7.28 11.37-6.36 17.33.04.27.3.46.57.43 1.31-.14 2.92-.8 4.57-.65.18.02.36-.06.46-.21 5.23-7.21 14.64-7.79 21.11-3.61.1.07.23.1.35.08 5.33-.74 8.85-3.45 10.14-7.09 1.45-4.1.62-10.75-1.92-14.8a.5.5 0 0 0-.49-.24ZM61.25 68c-5.77-.5-8.92-2.27-10.87-4.54-.25-.29-.1-.74.27-.83 2.93-.64 8.08-2.73 10.44-4.5 1.16-.87 2.23-1.87 3.19-2.96.31-.36.01-.9-.46-.85-2.32.25-5.04-.56-6.1-2.7-.16-.33-.57-.41-.83-.15-1.84 1.81-5.52 3.65-9.72 4.74-.61.16-1.82.72-2.32 1.11-6.41 5.03-11.05 14.79-11.37 21.21 0 .07-.02.14-.05.2-1.57 2.92-3.58 8.25-1.72 16.47 2.39 10.57 8.07 15.35 14.12 19.79 2.55 1.87 5.39 3.29 8.41 4.51.48.2.91-.38.58-.79-4.92-6.15-7.98-11.94-7.98-17.16 0-7.69 6.66-11.25 11.95-11.8.14-.01.25-.08.33-.19.84-1.08 2.02-2.04 2.93-2.66.22-.15.28-.44.15-.66-2.84-4.99-3.5-11.4-.53-17.52.16-.33-.05-.7-.41-.73Zm-.57-33.48c1.32-.76 2.74-1.23 4.1-1.7.3-.1.43-.45.28-.73-.34-.63-.6-1.29-.65-1.99a.513.513 0 0 0-.59-.47c-.65.1-1.37.22-2.13.41-1.88.45-3.73 1.51-4.29 2.55-.59 1.1-.95 2.53-1.33 3.88-.14.47.4.85.79.56a43 43 0 0 1 3.82-2.52Zm6.89-6.85c.08.05.16.09.24.14.23.15.53.08.69-.13 1.61-2.08 4.37-2.79 5.82-1.96 2.96 1.68 2.22 4.78 1.02 6.4.09.07.23.19.34.33 2.43-1.09 5.58-.87 7.98.2 2.96 1.32 4.8 3.15 6.29 5.29.29.42.94.22.94-.3 0-4.72-2.28-9.91-7.51-12.57-5.16-2.63-12.05-2.81-16 1.82-.21.25-.12.62.16.78Z" class="cls-1"/><path d="M413.17 183.75h-39.12l-11.32-28.62h-56.42l-10.71 28.62h-38.3l61.15-145.78h34.18zm-60.12-56.83-18.12-50.03-18.53 50.03zM547.62 37.97l-56.21 145.78H456.2L401.02 37.97h39.53l33.77 103.36h.82L508.7 37.97zM594.98 183.75h-35.42V37.97h35.42zM784 183.75h-88.74c-23.61 0-42.49-6.59-56.62-19.77-14.14-13.18-21.21-31.5-21.21-54.98 0-21.96 7.48-39.95 22.44-53.95s33.84-21 56.62-21 41.56 6.93 56.31 20.8 22.13 31.71 22.13 53.53c0 10.29-2.13 19.63-6.38 28q-6.39 12.555-15.24 19.35v.62l30.68-.62v28Zm-46.33-74.33c0-12.77-3.84-23.2-11.53-31.3s-17.57-12.15-29.65-12.15-21.62 4.09-29.44 12.25c-7.82 8.17-11.74 18.57-11.74 31.19s3.81 23.68 11.43 31.92 17.47 12.35 29.55 12.35 21.83-4.12 29.65-12.35c7.82-8.24 11.74-18.87 11.74-31.92Z" class="cls-1"/></svg>