<?xml version="1.0" encoding="iso-8859-1"?>
<!-- Generator: Adobe Illustrator 30.3.0, SVG Export Plug-In . SVG Version: 9.03 Build 0)  -->
<svg version="1.1" id="Calque_1" xmlns="http://www.w3.org/2000/svg" xmlns:xlink="http://www.w3.org/1999/xlink" x="0px" y="0px"
	 viewBox="0 0 64 64" style="enable-background:new 0 0 64 64;" xml:space="preserve">
<g>
	<linearGradient id="SVGID_1_" gradientUnits="userSpaceOnUse" x1="2.3728" y1="22.2269" x2="60.9058" y2="21.8885">
		<stop  offset="0" style="stop-color:#FFA02F"/>
		<stop  offset="1" style="stop-color:#DE3831"/>
	</linearGradient>
	<path style="fill:url(#SVGID_1_);" d="M34.526,22.202c0-1.273-1.909-2.227-5.09-2.227c-5.09,0-7.253,2.036-8.144,2.927
		c1.91,0.699,4.391,1.272,6.681,1.272C32.554,24.174,34.526,23.093,34.526,22.202z"/>
	
		<linearGradient id="SVGID_00000008116834877099152930000008359656796297232792_" gradientUnits="userSpaceOnUse" x1="2.4303" y1="32.1712" x2="60.9633" y2="31.8328">
		<stop  offset="0" style="stop-color:#FFA02F"/>
		<stop  offset="1" style="stop-color:#DE3831"/>
	</linearGradient>
	<path style="fill:url(#SVGID_00000008116834877099152930000008359656796297232792_);" d="M54.878,32.85
		c2.097-2.182,4.669-3.288,7.645-3.288c0.394,0,0.779,0.019,1.158,0.055C62.462,13.208,48.764,0.274,32.044,0.274
		C14.523,0.274,0.319,14.478,0.319,32c0,17.521,14.204,31.726,31.725,31.726c10.601,0,19.986-5.201,25.748-13.189
		c-1.059-0.533-2.032-1.252-2.911-2.162c-2.059-2.134-3.117-4.736-3.145-7.732l0-0.025l0-0.025
		C51.764,37.602,52.82,34.998,54.878,32.85z M48.587,53.441c-2.099,0-4.326-4.39-5.28-6.554
		c-1.846-4.263-4.645-10.181-13.235-11.324c-0.699-0.066-1.208-0.701-1.208-1.401c0-0.827,0.573-1.464,1.335-1.464
		c6.808,0,14.125-2.163,14.125-8.016c0-7.508-9.544-11.516-18.323-11.516c-5.472,0-9.035,2.036-9.035,4.963
		c0,1.717,1.082,2.736,1.909,3.372c2.291-2.864,5.917-4.327,10.561-4.327c4.644,0,7.953,2.164,7.953,5.027
		c0,2.672-3.309,4.643-9.416,4.643c-2.355,0-5.408-0.445-8.08-1.59c-0.955,2.099-1.464,4.836-1.464,8.271
		c0,7.445,0.891,13.488,2.482,16.988c0.127,0.253,0.19,0.445,0.19,0.637c0,0.762-0.636,1.398-1.399,1.398
		c-0.574,0-1.083-0.319-1.338-0.826c-1.844-3.944-2.799-10.244-2.799-18.197c0-3.881,0.636-7.126,1.846-9.607
		c-2.672-1.909-3.309-4.135-3.309-5.79c0-3.69,3.182-7.572,11.898-7.572c11.133,0,21.186,5.218,21.186,14.125
		c0,5.025-4.262,9.162-10.817,9.925c5.791,2.736,7.89,7.764,9.481,11.069c0.955,2.037,1.783,4.136,3.245,5.028
		c0.509,0.319,0.891,0.764,0.891,1.336C49.986,52.806,49.351,53.441,48.587,53.441z"/>
</g>
</svg>
